<?xml version="1.0" standalone="no"?><!DOCTYPE svg PUBLIC "-//W3C//DTD SVG 1.1//EN" "http://www.w3.org/Graphics/SVG/1.1/DTD/svg11.dtd"><svg t="1756258937331" class="icon" viewBox="0 0 1024 1024" version="1.1" xmlns="http://www.w3.org/2000/svg" p-id="5354" xmlns:xlink="http://www.w3.org/1999/xlink" width="200" height="200"><path d="M960 325.8368l-261.8368-261.888a41.472 41.472 0 0 0-33.6896-12.5952 43.7248 43.7248 0 0 0-32.0512 20.3264c-24.064 40.1408-30.208 92.16-16.9984 141.3632L461.312 370.688c-110.848-50.4832-232.2432-37.2224-306.688 37.2224-6.5536 6.5536-13.5168 19.1488-13.5168 29.44 0 15.9744 8.8064 24.7296 13.4656 29.3888l186.624 188.416-284.2624 284.2624a19.5584 19.5584 0 0 0 27.648 27.648l284.16-284.16 188.416 190.3104v0.0512a41.7792 41.7792 0 0 0 29.4912 11.6224c11.3664 0 22.016-4.1984 29.44-11.6224 74.4448-74.4448 88.5248-193.6384 37.12-306.8416l157.8496-157.8496c49.2032 13.1584 101.2736 6.9632 142.08-17.5104a43.2128 43.2128 0 0 0 19.456-31.5904 41.5232 41.5232 0 0 0-12.5952-33.6384z m-27.7504 32.256c-33.6384 20.1216-78.7456 23.808-120.576 9.9328a19.5584 19.5584 0 0 0-20.0192 4.7104l-175.872 175.872a19.5584 19.5584 0 0 0-3.6864 22.528c50.7904 101.632 41.472 209.3056-23.3984 274.2784a5.9392 5.9392 0 0 1-4.096 0.1024L179.9168 439.7568a15.872 15.872 0 0 1 2.3552-4.2496c65.536-65.536 174.7968-73.472 274.432-23.6544a19.456 19.456 0 0 0 22.7328-3.84l171.9296-175.872a19.5584 19.5584 0 0 0 4.608-19.8656c-13.9776-41.8304-10.2912-86.8864 9.9328-120.5248l-16.7424-10.0352 21.3504 9.8816 261.8368 261.8368-0.1024 4.608z" fill="#141A48" p-id="5355"></path></svg>