<?xml version="1.0" standalone="no"?><!DOCTYPE svg PUBLIC "-//W3C//DTD SVG 1.1//EN" "http://www.w3.org/Graphics/SVG/1.1/DTD/svg11.dtd"><svg t="1756200542289" class="icon" viewBox="0 0 1024 1024" version="1.1" xmlns="http://www.w3.org/2000/svg" p-id="1460" xmlns:xlink="http://www.w3.org/1999/xlink" width="200" height="200"><path d="M604.371 238.859H198.814l78.926-78.926c14.214-14.214 14.214-37.24 0-51.454s-37.24-14.214-51.454 0L85.252 249.525c-14.214 14.214-14.214 37.24 0 51.454l141.034 141.034c7.107 7.107 16.42 10.666 25.721 10.666s18.626-3.548 25.721-10.666c14.214-14.214 14.214-37.24 0-51.454l-78.915-78.926H604.37c148.573 0 269.458 114.256 269.458 254.71 0 140.431-120.885 254.71-269.458 254.71H232.05c-20.093 0-36.387 16.272-36.387 36.387 0 20.115 16.295 36.387 36.387 36.387h372.308c188.724 0 342.232-146.902 342.232-327.484 0.013-180.571-153.495-327.484-342.219-327.484z" p-id="1461"></path></svg>